<?xml version="1.0" encoding="UTF-8"?>
<svg id="Layer_1" data-name="Layer 1" xmlns="http://www.w3.org/2000/svg" viewBox="0 0 1024 586.05">
  <defs>
    <style>
      .cls-1 {
        fill: #fff;
      }
    </style>
  </defs>
  <g>
    <path class="cls-1" d="M321.95,162.74c41.08-55.3,32.77-108.4-33.09-160.03-70.61,55.35-73.74,112.24-28.8,166.8,6.64,7.76,28.8,28.82,28.8,28.82,0,0,24.63-.47,62.08,14.4,0,0-17.01-29.8-41.46-50.9-28.17-24.3-59.48-67.77-20.62-103.79,26.23,24.32,20.48,52.03,5.32,74.95,0,0,1.73,5.55,20.48,22.96,2.71,2.51,4.84,4.88,7.3,6.79"/>
    <path class="cls-1" d="M282.25,203.19s-18.65,19.84-29.09,53.01c-9.31,29.59-10.26,58.29-10.26,58.29-15.73-3.72-38.89-23.13-38.89-23.13,2.57-36.27,16.3-67.52,16.3-67.52,10.72-28.01,33.66-48.96,33.66-48.96l28.28,28.31Z"/>
    <path class="cls-1" d="M160.01,258.56C104.73,217.48,51.61,225.79,0,291.66c55.34,70.6,112.22,73.73,166.79,28.8,7.77-6.64,28.82-28.8,28.82-28.8,0,0-.46-24.64,14.41-62.09,0,0-29.8,17.01-50.9,41.46-24.31,28.17-67.76,59.48-103.8,20.63,24.32-26.23,52.04-20.48,74.95-5.32,0,0,5.54-1.73,22.95-20.48,2.51-2.71,4.89-4.84,6.78-7.3"/>
    <path class="cls-1" d="M200.47,298.27s19.84,18.65,53.01,29.09c29.59,9.31,58.29,10.26,58.29,10.26-3.72,15.72-23.12,38.89-23.12,38.89-36.28-2.58-67.52-16.3-67.52-16.3-28.02-10.72-48.97-33.66-48.97-33.66l28.3-28.27Z"/>
    <path class="cls-1" d="M255.84,420.51c-41.08,55.28-32.76,108.4,33.1,160.02,70.6-55.35,73.74-112.24,28.81-166.8-6.65-7.76-28.81-28.83-28.81-28.83,0,0-24.62.47-62.09-14.4,0,0,17.01,29.79,41.46,50.89,28.16,24.3,59.47,67.76,20.62,103.8-26.23-24.32-20.48-52.03-5.31-74.96,0,0-1.74-5.54-20.49-22.95-2.7-2.51-4.84-4.89-7.3-6.78"/>
    <path class="cls-1" d="M295.55,380.04s18.65-19.84,29.09-53.01c9.31-29.59,10.26-58.29,10.26-58.29,15.72,3.72,38.89,23.12,38.89,23.12-2.58,36.28-16.3,67.52-16.3,67.52-10.72,28.02-33.66,48.98-33.66,48.98l-28.28-28.31Z"/>
    <path class="cls-1" d="M417.78,324.68c55.29,41.07,108.4,32.77,160.02-33.1-55.35-70.61-112.23-73.74-166.8-28.8-7.76,6.65-28.82,28.8-28.82,28.8,0,0,.47,24.62-14.4,62.09,0,0,29.8-17.01,50.9-41.47,24.3-28.16,67.77-59.47,103.79-20.62-24.33,26.23-52.04,20.48-74.95,5.31,0,0-5.54,1.74-22.96,20.49-2.51,2.7-4.88,4.84-6.79,7.3"/>
    <path class="cls-1" d="M377.32,284.97s-19.83-18.65-53-29.09c-29.6-9.31-58.29-10.26-58.29-10.26,3.71-15.73,23.13-38.89,23.13-38.89,36.28,2.58,67.52,16.3,67.52,16.3,28.01,10.72,48.96,33.66,48.96,33.66l-28.31,28.28Z"/>
    <path class="cls-1" d="M63.71,229.8c9.79-3.11,20.22-4.82,31.04-4.82,4.34,0,8.58.25,12.78.77,19.47-53.58,62.12-96.14,115.73-115.56-.48-4.02-.6-8.11-.6-12.26,0-11.03,1.71-21.66,4.95-31.61-79.48,21.57-142.15,84.07-163.9,163.47"/>
    <path class="cls-1" d="M227.08,516.81c-3.11-9.79-4.81-20.22-4.81-31.04,0-4.33.24-8.58.77-12.78-53.59-19.47-96.14-62.12-115.58-115.73-4.01.48-8.11.6-12.25.6-11.04,0-21.66-1.71-31.62-4.95,21.58,79.49,84.07,142.16,163.48,163.9"/>
    <path class="cls-1" d="M514.09,353.44c-9.79,3.11-20.22,4.81-31.04,4.81-4.33,0-8.59-.24-12.77-.77-19.48,53.59-62.13,96.16-115.73,115.58.48,4.02.59,8.11.59,12.25,0,11.04-1.71,21.67-4.94,31.62,79.48-21.57,142.14-84.07,163.89-163.48"/>
    <path class="cls-1" d="M350.72,66.43c3.12,9.78,4.82,20.22,4.82,31.04,0,4.33-.25,8.58-.77,12.78,53.58,19.47,96.14,62.11,115.57,115.72,4.01-.48,8.11-.59,12.25-.59,11.04,0,21.65,1.71,31.62,4.94-21.58-79.48-84.08-142.14-163.48-163.88"/>
  </g>
  <g>
    <path class="cls-1" d="M644.9,375.11v-66.12h3.37l97.4,104.14,1.38,1.18c.4-7.14.6-14.45.6-21.58v-63.35l-.79-15.85-.2-1.57c2.77.39,5.74.59,8.51.59,1.58,0,3.36-.2,4.95-.59-.2,1.57-.2,3.17-.4,4.75l-.99,19.4-1.79,46.92-.59,44.34.59,22.37h-2.97c-3.96-4.75-7.92-9.5-12.07-14.05l-32.27-35.83-55.24-58.79-.39,18.61c-.2,9.9,0,19.6,0,29.3v15.84l.59,23.36.99,19.01c-4.55-.79-9.11-.79-13.66,0,.79-8.71,1.39-17.42,1.58-26.13l1.38-45.93Z"/>
    <path class="cls-1" d="M812.93,378.47l.6,42.96.79,21.38.39,4.36c-2.97-.2-6.13-.99-9.1-.99-3.57,0-6.93.78-10.5.99.2-1.39.2-2.98.4-4.36l.79-15.64.78-46.32v-48.31l-.99-20.99c3.37.21,6.73.79,10.1.79,2.97,0,6.13-.39,9.1-.58-.19,1.77-.19,3.55-.39,5.34l-.79,18.01-.99,34.45,25.54.6,56.62-.6v-41.97l-.99-16.04c3.36.21,6.73.79,10.09.79,3.17,0,6.14-.39,9.31-.58-.39,1.77-.39,3.55-.6,5.34l-1.78,64.54.6,44.54.99,20.99c-2.97-.2-5.94-.99-8.91-.99-3.57,0-6.93.78-10.5.99.2-1.39.2-2.98.4-4.36l.99-20.39.59-43.95h-82.56Z"/>
    <path class="cls-1" d="M945.95,421.04c7.72,12.67,16.63,20.18,32.07,20.18s27.52-12.87,27.52-28.51c0-13.26-8.91-19.99-20-24.94-9.3-4.36-19.4-7.53-27.91-13.27-8.91-5.94-14.06-16.44-14.06-27.13,0-25.53,20.2-38.01,43.95-38.01,9.5,0,20.99,2.97,28.31,9.5-2.37,5.14-3.76,10.69-5.34,16.22h-1.98c-4.16-10.68-12.86-17.81-24.55-17.81-13.67,0-24.95,9.7-24.95,23.76,0,7.51,2.77,13.66,8.51,18.41,3.17,2.77,3.96,2.97,7.72,4.74,2.37,1.2,4.95,2.38,7.51,3.37,2.97,1.19,5.95,2.37,8.91,3.76,2.97,1.38,6.34,2.57,9.11,4.15,4.35,2.37,9.3,4.75,12.47,8.52,4.95,6.14,8.12,12.87,8.12,20.98,0,28.31-21.98,44.74-48.9,44.74-9.7,0-25.55-3.76-32.27-11.08,1.98-5.74,2.97-11.68,3.76-17.62h1.98Z"/>
    <path class="cls-1" d="M667.45,529.86c-1.38-.26-2.95-.43-4.42-.43s-3.03.17-4.5.43c-4.94-19.05-10.83-37.86-16.63-56.74l-.61-2.51c2.34.18,4.68.43,7.02.43s4.76-.26,7.1-.43c3.46,14.55,7.44,28.93,11.43,43.31,4.93-14.47,10.57-28.67,14.98-43.31,1.47.26,2.95.43,4.42.43,1.39,0,2.86-.17,4.25-.43,3.9,14.64,9.53,28.75,13.78,43.31,4.59-14.29,9.18-28.67,12.82-43.31,1.3.18,2.59.43,3.9.43s2.69-.17,3.89-.43v.7c-7.1,19.32-13.85,38.81-19.83,58.55-1.39-.26-2.94-.43-4.42-.43s-3.04.17-4.51.43c-3.8-14.29-8.74-28.24-13.77-42.1-4.85,13.77-9.96,27.38-14.64,41.23l-.26.87Z"/>
    <path class="cls-1" d="M771.48,506.9h15.84c-2.42-6.75-5.02-13.51-7.71-20.17-2.77,6.4-5.46,12.81-7.87,19.39l-.26.78ZM755.2,529.16l6.41-14.81c6.41-14.55,12.55-29.28,18.01-44.25,1.13.18,2.17.43,3.3.43s2.17-.25,3.29-.43l.61,1.47c7.19,18.96,14.73,37.85,22.7,56.55l.43.96v.78c-2.43-.18-4.95-.44-7.36-.44s-4.85.17-7.28.44c-1.83-5.98-3.64-11.87-5.98-17.67-3.21-.09-6.32-.26-9.53-.26-3.56,0-7.01.08-10.56.17l-.43,1.22c-1.9,5.45-4.07,10.82-5.46,16.54-1.3-.26-2.69-.44-4.07-.44-1.3,0-2.77.17-4.07.44v-.7Z"/>
    <path class="cls-1" d="M845.95,470.61c2.34.17,4.68.43,7.02.43s4.76-.26,7.1-.43c-.17,5.2-.61,10.31-.68,15.51-.09,3.38-.09,6.75-.09,10.13v16.37c0,3.63.16,7.28.16,10.91l4.68-.17c5.11-.09,10.14-.51,15.16-.95-.26,1.21-.35,2.51-.35,3.72s.09,2.51.35,3.73l-14.63-.52c-3.99-.08-7.88.26-11.79.26-2.42,0-4.76.09-7.19.26.61-9.36.78-18.72.78-28.07,0-3.46.09-6.93.09-10.38,0-6.42-.35-12.74-.52-19.14l-.09-1.65Z"/>
    <path class="cls-1" d="M916.88,470.61c4.59.09,9.18.52,13.78.52,6.5,0,13.07-.35,19.57-.44-.44,2.09-.44,4.25-.17,6.42.09.34.09.69.17,1.03-6.58-.51-13.16-1.21-19.75-1.03-.08,3.02-.16,5.97-.16,9.01,0,3.21-.09,6.4-.09,9.61l19.65-.7c-.18,1.39-.42,2.69-.42,4.08,0,1.12.25,2.16.42,3.28-5.1-.35-10.21-.61-15.41-.7-1.38,0-2.86-.09-4.24-.09,0,3.64-.09,7.36-.09,11.01s.09,7.28.09,10.91c6.67,0,13.33-.44,20-1.12-.44,2.08-.44,4.24-.17,6.4.09.35.09.7.17,1.04-5.19-.08-10.47-.52-15.67-.52-3.38,0-6.84.26-10.22.26-2.6,0-5.11.09-7.71.26.17-1.65.17-3.3.26-4.94.17-5.37.35-10.74.43-16.2,0-4.33.09-8.74.09-13.16v-10.14c0-4.5-.35-9.18-.52-13.68v-1.13Z"/>
    <path class="cls-1" d="M1015.1,482.31c-1.73-4.51-5.02-7.36-9.96-7.36-2.86,0-4.76.34-6.93,2.34-1.73,1.55-2.6,3.63-2.6,5.97,0,9.18,20.44,11.17,24.86,21.31,1.03,2.25,1.47,5.29,1.47,7.71,0,2.6-.95,5.89-2.08,8.14-1.99,4.16-5.11,6.5-9.18,8.4-3.89,1.82-7.45,2.26-11.69,2.26-4.76,0-9.88-1.13-13.94-3.63,1.04-3.64,1.99-7.2,2.51-10.92h1.64c1.3,5.89,5.97,9.27,11.95,9.27,5.36,0,10.14-2.86,10.14-8.74,0-2.95-1.13-4.67-3.21-6.66-3.04-2.17-6.32-3.91-9.7-5.46-2.42-1.13-4.68-2.86-6.93-4.24-4.24-2.6-5.97-8.23-5.97-13,0-5.97,1.99-9.95,6.58-13.68,4.24-3.38,8.05-4.24,13.42-4.24,4.59,0,8.92.95,12.91,3.46.26.26.52.35.77.61-1.03,2.78-1.9,5.63-2.77,8.5h-1.29Z"/>
    <path class="cls-1" d="M695.78,268.63l-1.91,7.36c-5.2,2.67-11.34,3.72-17.15,3.72-4.33,0-7.1-.43-11.34-1.3-2.43-.52-7.36-2.86-9.53-4.25-2.25-1.56-4.59-3.98-6.23-6.15-3.81-5.11-5.46-10.74-5.46-17.15,0-9.88,2.42-17.92,9.96-24.6,6.67-5.8,15.85-7.96,24.51-7.96,5.71,0,12.64,1.47,17.66,4.15-.78,2.95-1.29,5.89-1.99,8.83h-1.21c-3.2-4.59-8.75-7.61-14.37-7.61-14.38,0-20.27,13.42-20.27,25.98,0,6.14,1.3,12.55,5.11,17.57,3.64,4.76,9.61,7.36,15.59,7.36,5.37,0,11.61-2.77,15.5-6.4l1.13.43Z"/>
    <path class="cls-1" d="M729.56,219.78c2.6,0,5.2-.17,7.71-.52,1.21,2.51,2.42,5.11,3.63,7.63,1.3,2.77,2.6,5.46,3.9,8.14,1.21,2.51,2.51,5.03,3.72,7.54.44.95.96,2.16,1.73,2.85,0,.26,1.3-1.64,1.39-1.73.51-.86,1.03-1.81,1.47-2.68,1.82-3.38,3.47-6.84,5.11-10.22,1.13-2.35,2.17-4.76,3.21-7.1.6-1.48,1.21-2.86,1.9-4.34.35.08.69.08,1.03.17,2.35.43,4.77.26,7.1-.17-6.06,11.35-12.55,21.83-18.01,32.92-.08,3.29-.17,6.67-.17,9.95,0,5.46.52,10.92.87,16.38-2.42-.17-4.94-.44-7.36-.44s-4.94.17-7.36.44c.61-6.59.96-13.17.96-19.75.08-1.64.08-3.21.08-4.85-6.49-11.17-12.2-22.87-18.71-34.65,2.6.17,5.2.43,7.8.43"/>
    <path class="cls-1" d="M804.98,219.34c1.13.09,2.34.44,3.47.44,1.21,0,2.42-.26,3.55-.44,6.33,13.87,13.17,27.37,20.01,40.97l5.1-9.96c5.29-10.21,10.31-20.52,15.07-31.01.35.09.61.09.96.18,2.16.35,4.33.26,6.4-.18,1.48,13.52,3.12,27.03,4.76,40.54.61,5.02,1.39,10.05,2.08,15.07.17,1.04.61,2.42.61,3.64-2.34-.17-4.76-.43-7.1-.43s-4.68.26-7.01.43c-.61-13.34-2.34-26.59-3.63-39.93-6.59,13.26-13.08,26.51-19.23,39.93-1.13-.17-2.17-.26-3.3,0l-6.67-13.87c-3.98-8.39-8.23-16.71-12.3-25.11-.61,5.11-1.29,10.22-1.82,15.32-.26,3.3-.61,6.5-.87,9.79-.17,2.86-.43,5.63-.61,8.5-.09,1.82-.17,3.55-.35,5.37-1.29-.26-2.67-.43-4.07-.43-1.3,0-2.69.18-3.98.43,0-.87.44-2.6.61-3.21.95-4.33,1.55-8.74,2.34-13.17.95-5.62,1.64-11.26,2.43-16.89l3.54-25.98Z"/>
    <path class="cls-1" d="M910.12,234.51c0,2.25-.09,4.5-.09,6.75,0,2.08,0,4.15-.09,6.24,9.02.86,13.52-3.47,13.52-12.39,0-1.81-.09-2.51-.44-4.33-1.55-7.19-7.01-6.24-12.91-6.59v10.31ZM913.41,256.16c-.78-1.47-1.64-3.04-2.51-4.41-.26-.35-.17-.44-.61-.52,0,0-.44,0-.44.52,0,5.11.17,10.31.17,15.41.09.78.09,1.56.09,2.34.09,3.03.43,6.07.61,9.1-2.34-.17-4.68-.43-7.02-.43s-4.67.26-7.01.43l.08-1.65c.09-1.9.17-3.8.35-5.71.44-5.63.44-11.35.44-17.06,0-5.2-.09-10.48-.09-15.68,0-6.4-.26-12.73-.61-19.14l5.97.17c4.16.09,8.32-.26,12.47-.26s10.4-.16,13.94,1.83c5.03,2.85,7.63,6.75,7.63,12.64,0,8.49-5.46,13.85-13.51,15.59,4.76,8.31,10.12,16.28,15.33,24.34l3.12,4.93c-2.6-.17-5.29-.43-7.88-.43s-5.2.17-7.79.43l-10.05-17.76-2.69-4.68Z"/>
    <path class="cls-1" d="M1023.3,231.99c-.08,2.77-.25,5.63-.25,8.5,0,3.2-.17,6.4-.26,9.51-.17,9.88-.09,18.89-9.09,25.12-4.69,3.38-10.65,4.59-16.38,4.59-10.47,0-21.81-3.3-25.02-14.55-.44-1.56-.61-3.11-.78-4.68-.26-1.9-.18-3.98-.18-5.97-.09-3.56-.17-7.1-.17-10.74s-.09-7.19-.09-10.82c0-3.3-.08-6.67-.08-9.96,0-1.22-.17-2.42-.17-3.64,2.43.18,4.75.44,7.18.44s4.69-.18,7.01-.52c-.08,1.39-.25,2.86-.42,4.25-.43,6.84-.7,13.5-.7,20.26,0,4.76-.17,11.87.61,16.37.77,4.24,1.47,6.93,4.59,9.96,2.77,2.6,6.06,3.73,9.88,3.73,8.05,0,12.38-2.95,15.41-10.48,1.57-3.82,1.57-13.68,1.57-17.93,0-8.66-.09-17.4-.7-26.07,1.47.26,2.95.44,4.42.44s2.95-.18,4.33-.44c-.43,4.17-.52,8.41-.7,12.65"/>
    <path class="cls-1" d="M841.95,124.62l.6,42.97.79,21.38.4,4.35c-2.98-.19-6.14-.98-9.11-.98-3.56,0-6.93.79-10.5.98.21-1.38.21-2.97.4-4.35l.79-15.64.79-46.34v-48.3l-1-20.99c3.37.2,6.73.79,10.1.79,2.97,0,6.13-.39,9.1-.59-.2,1.77-.2,3.56-.39,5.34l-.79,18.01-.99,34.46-.21,8.91Z"/>
    <path class="cls-1" d="M786.4,183.75c2.38,8.04-40.8,10.96-56.71,10.96-51.75,0-92.66-26.52-92.66-71.27,0-41.97,40.91-71.27,92.66-71.27,18.43,0,37.62,3.37,54.03,9.7l-8.33,13.46c-11.37-5.14-28.03-8.9-45.7-8.9-40.65,0-69.44,25.34-69.44,57.01s28.79,57.02,69.44,57.02c12.11,0,25.5-2.38,35.1-5.74l2.71-2.32v-40.79l-1-20.99c3.37.2,9.92.79,13.29.79,2.97,0,6.13-.39,9.1-.59-.2,1.77-.2,3.56-.39,5.34l-.79,18.02-1.3,49.55Z"/>
    <path class="cls-1" d="M1019.18,183.75c2.38,8.04-40.81,10.96-56.71,10.96-51.76,0-92.66-26.52-92.66-71.27,0-41.97,40.91-71.27,92.66-71.27,18.42,0,37.61,3.37,54.03,9.7l-8.34,13.46c-11.35-5.14-28.01-8.9-45.69-8.9-40.65,0-69.44,25.34-69.44,57.01s28.79,57.02,69.44,57.02c12.11,0,25.49-2.38,35.1-5.74l2.7-2.32v-40.79l-.99-20.99c3.37.2,9.92.79,13.29.79,2.97,0,6.13-.39,9.1-.59-.2,1.77-.2,3.56-.4,5.34l-.79,18.02-1.29,49.55Z"/>
  </g>
</svg>